<svg width="14" height="13" viewBox="0 0 14 13" fill="none" xmlns="http://www.w3.org/2000/svg">
<path d="M13.1891 4.51719L9.2219 3.94063L7.44847 0.345315C7.40003 0.246878 7.32034 0.16719 7.2219 0.118753C6.97503 -0.00312227 6.67503 0.0984402 6.55159 0.345315L4.77815 3.94063L0.810967 4.51719C0.701592 4.53282 0.601592 4.58438 0.525029 4.6625C0.432469 4.75764 0.381465 4.88563 0.383223 5.01835C0.384981 5.15107 0.439357 5.27767 0.534404 5.37032L3.40472 8.16875L2.72659 12.1203C2.71069 12.2122 2.72086 12.3068 2.75595 12.3932C2.79105 12.4796 2.84966 12.5545 2.92514 12.6093C3.00062 12.6642 3.08995 12.6967 3.183 12.7034C3.27605 12.71 3.3691 12.6904 3.45159 12.6469L7.00003 10.7813L10.5485 12.6469C10.6453 12.6984 10.7578 12.7156 10.8657 12.6969C11.1375 12.65 11.3203 12.3922 11.2735 12.1203L10.5953 8.16875L13.4657 5.37032C13.5438 5.29375 13.5953 5.19375 13.611 5.08438C13.6532 4.81094 13.4625 4.55782 13.1891 4.51719Z" fill="#E7C825"/>
</svg>
